<mxfile host="app.diagrams.net" modified="2023-04-24T07:28:05.141Z" agent="Mozilla/5.0 (Windows NT 10.0; Win64; x64) AppleWebKit/537.36 (KHTML, like Gecko) Chrome/112.0.0.0 Safari/537.36" etag="dInEqYRfHazJ-P6Bx8Ck" version="21.1.7" type="github">
  <diagram name="페이지-1" id="6QnXexIQahvQYQ6y6K53">
    <mxGraphModel dx="1434" dy="796" grid="1" gridSize="10" guides="1" tooltips="1" connect="1" arrows="1" fold="1" page="1" pageScale="1" pageWidth="827" pageHeight="1169" math="0" shadow="0">
      <root>
        <mxCell id="0" />
        <mxCell id="1" parent="0" />
        <mxCell id="Hh4WHG6synLtZnwYYeu3-1" value="nc_r_coin_list_t&lt;br&gt;nc_b_search_option_t&lt;br&gt;nc_b_disparity_option_t" style="rounded=0;whiteSpace=wrap;html=1;" vertex="1" parent="1">
          <mxGeometry x="60" y="110" width="160" height="60" as="geometry" />
        </mxCell>
        <mxCell id="Hh4WHG6synLtZnwYYeu3-2" value="시작" style="rounded=1;whiteSpace=wrap;html=1;" vertex="1" parent="1">
          <mxGeometry x="289" y="30" width="250" height="60" as="geometry" />
        </mxCell>
        <mxCell id="Hh4WHG6synLtZnwYYeu3-4" value="coin_name, option DB 가져오기" style="rounded=0;whiteSpace=wrap;html=1;" vertex="1" parent="1">
          <mxGeometry x="288" y="110" width="252" height="60" as="geometry" />
        </mxCell>
        <mxCell id="Hh4WHG6synLtZnwYYeu3-5" value="coin 10개씩 thread run" style="rounded=0;whiteSpace=wrap;html=1;" vertex="1" parent="1">
          <mxGeometry x="289" y="190" width="252" height="60" as="geometry" />
        </mxCell>
        <mxCell id="Hh4WHG6synLtZnwYYeu3-6" value="coin 하나 씩 api 요청" style="rounded=0;whiteSpace=wrap;html=1;" vertex="1" parent="1">
          <mxGeometry x="289" y="270" width="252" height="60" as="geometry" />
        </mxCell>
        <mxCell id="Hh4WHG6synLtZnwYYeu3-7" value="url:&amp;nbsp;https://api.bithumb.com/&lt;br&gt;public/candlestick/&lt;br&gt;&lt;span style=&quot;background-color: rgb(255, 255, 255);&quot;&gt;&lt;span style=&quot;font-size: 14px;&quot;&gt;{&lt;/span&gt;&lt;span style=&quot;font-size: 14px;&quot;&gt;coin&lt;/span&gt;&lt;span style=&quot;font-size: 14px;&quot;&gt;.coin_name&lt;/span&gt;&lt;span style=&quot;font-size: 14px;&quot;&gt;}&lt;/span&gt;&lt;span style=&quot;font-size: 14px;&quot;&gt;/1m&lt;/span&gt;&lt;/span&gt;" style="rounded=0;whiteSpace=wrap;html=1;align=left;" vertex="1" parent="1">
          <mxGeometry x="620" y="270" width="160" height="60" as="geometry" />
        </mxCell>
        <mxCell id="Hh4WHG6synLtZnwYYeu3-8" value="macd 계산 (종가 ewm12- 종가 ewm26)&lt;br&gt;signal line 계산(macd ewm9)&lt;br&gt;mcd histogram 계산 (macd - signal line)&lt;br&gt;coin name, macd 관련 데이터 list 저장" style="rounded=0;whiteSpace=wrap;html=1;" vertex="1" parent="1">
          <mxGeometry x="288" y="350" width="252" height="60" as="geometry" />
        </mxCell>
        <mxCell id="Hh4WHG6synLtZnwYYeu3-10" value="option 이격도 상한 하한 사이 인가?" style="rhombus;whiteSpace=wrap;html=1;" vertex="1" parent="1">
          <mxGeometry x="291" y="590" width="250" height="80" as="geometry" />
        </mxCell>
        <mxCell id="Hh4WHG6synLtZnwYYeu3-11" value="옵션 하나씩 판별" style="rounded=0;whiteSpace=wrap;html=1;" vertex="1" parent="1">
          <mxGeometry x="287" y="430" width="252" height="60" as="geometry" />
        </mxCell>
        <mxCell id="Hh4WHG6synLtZnwYYeu3-12" value="이격도 계산(종가 option 지정 개수 평균)" style="rounded=0;whiteSpace=wrap;html=1;" vertex="1" parent="1">
          <mxGeometry x="287" y="510" width="252" height="60" as="geometry" />
        </mxCell>
        <mxCell id="Hh4WHG6synLtZnwYYeu3-13" value="거래량이 조건 이상인가?&lt;br&gt;&amp;amp; 종가가 지정 조건 이상인가?&lt;br&gt;&amp;amp; 거래 대금이 지정 조건 이상인가?" style="rhombus;whiteSpace=wrap;html=1;" vertex="1" parent="1">
          <mxGeometry x="291" y="690" width="250" height="80" as="geometry" />
        </mxCell>
        <mxCell id="Hh4WHG6synLtZnwYYeu3-14" value="지정 옵션 추세 만큼 상승 중인가?" style="rhombus;whiteSpace=wrap;html=1;" vertex="1" parent="1">
          <mxGeometry x="291" y="790" width="250" height="80" as="geometry" />
        </mxCell>
        <mxCell id="Hh4WHG6synLtZnwYYeu3-15" value="coin name, option name 저장" style="rounded=0;whiteSpace=wrap;html=1;" vertex="1" parent="1">
          <mxGeometry x="287" y="890" width="252" height="60" as="geometry" />
        </mxCell>
        <mxCell id="Hh4WHG6synLtZnwYYeu3-16" value="" style="shape=flexArrow;endArrow=classic;startArrow=classic;html=1;rounded=0;exitX=1;exitY=0.5;exitDx=0;exitDy=0;entryX=0;entryY=0.5;entryDx=0;entryDy=0;" edge="1" parent="1" source="Hh4WHG6synLtZnwYYeu3-1" target="Hh4WHG6synLtZnwYYeu3-4">
          <mxGeometry width="100" height="100" relative="1" as="geometry">
            <mxPoint x="520" y="320" as="sourcePoint" />
            <mxPoint x="620" y="220" as="targetPoint" />
            <Array as="points">
              <mxPoint x="250" y="140" />
            </Array>
          </mxGeometry>
        </mxCell>
        <mxCell id="Hh4WHG6synLtZnwYYeu3-24" value="" style="endArrow=classic;html=1;rounded=0;exitX=0.5;exitY=1;exitDx=0;exitDy=0;" edge="1" parent="1" source="Hh4WHG6synLtZnwYYeu3-2" target="Hh4WHG6synLtZnwYYeu3-4">
          <mxGeometry width="50" height="50" relative="1" as="geometry">
            <mxPoint x="550" y="430" as="sourcePoint" />
            <mxPoint x="600" y="380" as="targetPoint" />
          </mxGeometry>
        </mxCell>
        <mxCell id="Hh4WHG6synLtZnwYYeu3-25" value="" style="endArrow=classic;html=1;rounded=0;exitX=0.5;exitY=1;exitDx=0;exitDy=0;entryX=0.5;entryY=0;entryDx=0;entryDy=0;" edge="1" parent="1" source="Hh4WHG6synLtZnwYYeu3-4" target="Hh4WHG6synLtZnwYYeu3-5">
          <mxGeometry width="50" height="50" relative="1" as="geometry">
            <mxPoint x="550" y="430" as="sourcePoint" />
            <mxPoint x="600" y="380" as="targetPoint" />
          </mxGeometry>
        </mxCell>
        <mxCell id="Hh4WHG6synLtZnwYYeu3-26" value="" style="endArrow=classic;html=1;rounded=0;exitX=0.5;exitY=1;exitDx=0;exitDy=0;" edge="1" parent="1" source="Hh4WHG6synLtZnwYYeu3-5" target="Hh4WHG6synLtZnwYYeu3-6">
          <mxGeometry width="50" height="50" relative="1" as="geometry">
            <mxPoint x="550" y="430" as="sourcePoint" />
            <mxPoint x="600" y="380" as="targetPoint" />
          </mxGeometry>
        </mxCell>
        <mxCell id="Hh4WHG6synLtZnwYYeu3-27" value="" style="endArrow=classic;html=1;rounded=0;exitX=0.5;exitY=1;exitDx=0;exitDy=0;" edge="1" parent="1" source="Hh4WHG6synLtZnwYYeu3-6" target="Hh4WHG6synLtZnwYYeu3-8">
          <mxGeometry width="50" height="50" relative="1" as="geometry">
            <mxPoint x="550" y="430" as="sourcePoint" />
            <mxPoint x="600" y="380" as="targetPoint" />
          </mxGeometry>
        </mxCell>
        <mxCell id="Hh4WHG6synLtZnwYYeu3-28" value="" style="endArrow=classic;html=1;rounded=0;exitX=0.5;exitY=1;exitDx=0;exitDy=0;" edge="1" parent="1" source="Hh4WHG6synLtZnwYYeu3-8" target="Hh4WHG6synLtZnwYYeu3-11">
          <mxGeometry width="50" height="50" relative="1" as="geometry">
            <mxPoint x="550" y="430" as="sourcePoint" />
            <mxPoint x="600" y="380" as="targetPoint" />
          </mxGeometry>
        </mxCell>
        <mxCell id="Hh4WHG6synLtZnwYYeu3-29" value="" style="endArrow=classic;html=1;rounded=0;exitX=0.5;exitY=1;exitDx=0;exitDy=0;entryX=0.5;entryY=0;entryDx=0;entryDy=0;" edge="1" parent="1" source="Hh4WHG6synLtZnwYYeu3-11" target="Hh4WHG6synLtZnwYYeu3-12">
          <mxGeometry width="50" height="50" relative="1" as="geometry">
            <mxPoint x="550" y="530" as="sourcePoint" />
            <mxPoint x="600" y="480" as="targetPoint" />
          </mxGeometry>
        </mxCell>
        <mxCell id="Hh4WHG6synLtZnwYYeu3-30" value="" style="endArrow=classic;html=1;rounded=0;exitX=0.528;exitY=1;exitDx=0;exitDy=0;exitPerimeter=0;" edge="1" parent="1" source="Hh4WHG6synLtZnwYYeu3-12" target="Hh4WHG6synLtZnwYYeu3-10">
          <mxGeometry width="50" height="50" relative="1" as="geometry">
            <mxPoint x="550" y="530" as="sourcePoint" />
            <mxPoint x="600" y="480" as="targetPoint" />
          </mxGeometry>
        </mxCell>
        <mxCell id="Hh4WHG6synLtZnwYYeu3-31" value="" style="endArrow=classic;html=1;rounded=0;exitX=0.5;exitY=1;exitDx=0;exitDy=0;entryX=0.5;entryY=0;entryDx=0;entryDy=0;" edge="1" parent="1" source="Hh4WHG6synLtZnwYYeu3-10" target="Hh4WHG6synLtZnwYYeu3-13">
          <mxGeometry width="50" height="50" relative="1" as="geometry">
            <mxPoint x="550" y="530" as="sourcePoint" />
            <mxPoint x="600" y="480" as="targetPoint" />
          </mxGeometry>
        </mxCell>
        <mxCell id="Hh4WHG6synLtZnwYYeu3-32" value="" style="endArrow=classic;html=1;rounded=0;exitX=0.5;exitY=1;exitDx=0;exitDy=0;" edge="1" parent="1" source="Hh4WHG6synLtZnwYYeu3-13" target="Hh4WHG6synLtZnwYYeu3-14">
          <mxGeometry width="50" height="50" relative="1" as="geometry">
            <mxPoint x="550" y="730" as="sourcePoint" />
            <mxPoint x="600" y="680" as="targetPoint" />
          </mxGeometry>
        </mxCell>
        <mxCell id="Hh4WHG6synLtZnwYYeu3-34" value="" style="endArrow=classic;html=1;rounded=0;exitX=0.5;exitY=1;exitDx=0;exitDy=0;" edge="1" parent="1" source="Hh4WHG6synLtZnwYYeu3-14" target="Hh4WHG6synLtZnwYYeu3-15">
          <mxGeometry width="50" height="50" relative="1" as="geometry">
            <mxPoint x="550" y="730" as="sourcePoint" />
            <mxPoint x="600" y="680" as="targetPoint" />
          </mxGeometry>
        </mxCell>
        <mxCell id="Hh4WHG6synLtZnwYYeu3-36" value="" style="endArrow=classic;html=1;rounded=0;exitX=0;exitY=0.5;exitDx=0;exitDy=0;" edge="1" parent="1" source="Hh4WHG6synLtZnwYYeu3-13">
          <mxGeometry width="50" height="50" relative="1" as="geometry">
            <mxPoint x="550" y="730" as="sourcePoint" />
            <mxPoint x="180" y="730" as="targetPoint" />
          </mxGeometry>
        </mxCell>
        <mxCell id="Hh4WHG6synLtZnwYYeu3-37" value="" style="endArrow=classic;html=1;rounded=0;exitX=0;exitY=0.5;exitDx=0;exitDy=0;" edge="1" parent="1" source="Hh4WHG6synLtZnwYYeu3-10">
          <mxGeometry width="50" height="50" relative="1" as="geometry">
            <mxPoint x="550" y="730" as="sourcePoint" />
            <mxPoint x="180" y="630" as="targetPoint" />
          </mxGeometry>
        </mxCell>
        <mxCell id="Hh4WHG6synLtZnwYYeu3-38" value="" style="endArrow=classic;html=1;rounded=0;exitX=0;exitY=0.5;exitDx=0;exitDy=0;entryX=0.004;entryY=0.4;entryDx=0;entryDy=0;entryPerimeter=0;" edge="1" parent="1" source="Hh4WHG6synLtZnwYYeu3-15" target="Hh4WHG6synLtZnwYYeu3-11">
          <mxGeometry width="50" height="50" relative="1" as="geometry">
            <mxPoint x="550" y="730" as="sourcePoint" />
            <mxPoint x="180" y="460" as="targetPoint" />
            <Array as="points">
              <mxPoint x="180" y="920" />
              <mxPoint x="180" y="454" />
            </Array>
          </mxGeometry>
        </mxCell>
        <mxCell id="Hh4WHG6synLtZnwYYeu3-39" value="" style="endArrow=classic;html=1;rounded=0;exitX=0;exitY=0.5;exitDx=0;exitDy=0;" edge="1" parent="1" source="Hh4WHG6synLtZnwYYeu3-14">
          <mxGeometry width="50" height="50" relative="1" as="geometry">
            <mxPoint x="550" y="730" as="sourcePoint" />
            <mxPoint x="180" y="830" as="targetPoint" />
          </mxGeometry>
        </mxCell>
        <mxCell id="Hh4WHG6synLtZnwYYeu3-40" value="" style="endArrow=classic;html=1;rounded=0;exitX=0.528;exitY=1.017;exitDx=0;exitDy=0;exitPerimeter=0;entryX=0;entryY=0.5;entryDx=0;entryDy=0;" edge="1" parent="1" source="Hh4WHG6synLtZnwYYeu3-15" target="Hh4WHG6synLtZnwYYeu3-6">
          <mxGeometry width="50" height="50" relative="1" as="geometry">
            <mxPoint x="550" y="730" as="sourcePoint" />
            <mxPoint x="600" y="680" as="targetPoint" />
            <Array as="points">
              <mxPoint x="420" y="990" />
              <mxPoint x="120" y="990" />
              <mxPoint x="120" y="300" />
            </Array>
          </mxGeometry>
        </mxCell>
        <mxCell id="Hh4WHG6synLtZnwYYeu3-41" value="No" style="text;html=1;strokeColor=none;fillColor=none;align=center;verticalAlign=middle;whiteSpace=wrap;rounded=0;" vertex="1" parent="1">
          <mxGeometry x="210" y="600" width="60" height="30" as="geometry" />
        </mxCell>
        <mxCell id="Hh4WHG6synLtZnwYYeu3-42" value="No" style="text;html=1;strokeColor=none;fillColor=none;align=center;verticalAlign=middle;whiteSpace=wrap;rounded=0;" vertex="1" parent="1">
          <mxGeometry x="210" y="700" width="60" height="30" as="geometry" />
        </mxCell>
        <mxCell id="Hh4WHG6synLtZnwYYeu3-43" value="No" style="text;html=1;strokeColor=none;fillColor=none;align=center;verticalAlign=middle;whiteSpace=wrap;rounded=0;" vertex="1" parent="1">
          <mxGeometry x="210" y="800" width="60" height="30" as="geometry" />
        </mxCell>
        <mxCell id="Hh4WHG6synLtZnwYYeu3-44" value="옵션 순회" style="text;html=1;strokeColor=none;fillColor=none;align=center;verticalAlign=middle;whiteSpace=wrap;rounded=0;" vertex="1" parent="1">
          <mxGeometry x="210" y="890" width="60" height="30" as="geometry" />
        </mxCell>
        <mxCell id="Hh4WHG6synLtZnwYYeu3-45" value="Yes" style="text;html=1;strokeColor=none;fillColor=none;align=center;verticalAlign=middle;whiteSpace=wrap;rounded=0;" vertex="1" parent="1">
          <mxGeometry x="414" y="760" width="60" height="30" as="geometry" />
        </mxCell>
        <mxCell id="Hh4WHG6synLtZnwYYeu3-46" value="Yes" style="text;html=1;strokeColor=none;fillColor=none;align=center;verticalAlign=middle;whiteSpace=wrap;rounded=0;" vertex="1" parent="1">
          <mxGeometry x="414" y="860" width="60" height="30" as="geometry" />
        </mxCell>
        <mxCell id="Hh4WHG6synLtZnwYYeu3-47" value="Yes" style="text;html=1;strokeColor=none;fillColor=none;align=center;verticalAlign=middle;whiteSpace=wrap;rounded=0;" vertex="1" parent="1">
          <mxGeometry x="414" y="660" width="60" height="30" as="geometry" />
        </mxCell>
        <mxCell id="Hh4WHG6synLtZnwYYeu3-48" value="" style="endArrow=classic;html=1;rounded=0;exitX=1;exitY=0.5;exitDx=0;exitDy=0;" edge="1" parent="1" source="Hh4WHG6synLtZnwYYeu3-5">
          <mxGeometry width="50" height="50" relative="1" as="geometry">
            <mxPoint x="550" y="530" as="sourcePoint" />
            <mxPoint x="540" y="1060" as="targetPoint" />
            <Array as="points">
              <mxPoint x="800" y="220" />
              <mxPoint x="800" y="1060" />
            </Array>
          </mxGeometry>
        </mxCell>
        <mxCell id="Hh4WHG6synLtZnwYYeu3-49" value="" style="shape=flexArrow;endArrow=classic;startArrow=classic;html=1;rounded=0;entryX=0;entryY=0.5;entryDx=0;entryDy=0;exitX=1;exitY=0.5;exitDx=0;exitDy=0;" edge="1" parent="1" source="Hh4WHG6synLtZnwYYeu3-6" target="Hh4WHG6synLtZnwYYeu3-7">
          <mxGeometry width="100" height="100" relative="1" as="geometry">
            <mxPoint x="520" y="450" as="sourcePoint" />
            <mxPoint x="620" y="350" as="targetPoint" />
          </mxGeometry>
        </mxCell>
        <mxCell id="Hh4WHG6synLtZnwYYeu3-50" value="저장 된 macd 데이터, option별 coin name db insert" style="rounded=0;whiteSpace=wrap;html=1;" vertex="1" parent="1">
          <mxGeometry x="287" y="1030" width="252" height="60" as="geometry" />
        </mxCell>
        <mxCell id="Hh4WHG6synLtZnwYYeu3-51" value="nc_p_recommend_coin_t&lt;br&gt;nc_p_min_bithumb_t&lt;br&gt;nc_p_min_macd_t" style="rounded=0;whiteSpace=wrap;html=1;" vertex="1" parent="1">
          <mxGeometry x="60" y="1030" width="160" height="60" as="geometry" />
        </mxCell>
        <mxCell id="Hh4WHG6synLtZnwYYeu3-53" value="" style="shape=flexArrow;endArrow=classic;html=1;rounded=0;exitX=0;exitY=0.5;exitDx=0;exitDy=0;entryX=1;entryY=0.5;entryDx=0;entryDy=0;" edge="1" parent="1" source="Hh4WHG6synLtZnwYYeu3-50" target="Hh4WHG6synLtZnwYYeu3-51">
          <mxGeometry width="50" height="50" relative="1" as="geometry">
            <mxPoint x="550" y="750" as="sourcePoint" />
            <mxPoint x="600" y="700" as="targetPoint" />
          </mxGeometry>
        </mxCell>
      </root>
    </mxGraphModel>
  </diagram>
</mxfile>
